<svg xmlns="http://www.w3.org/2000/svg"  viewBox="0 0 48 48" width="480px" height="480px"><path fill="#03a9f4" d="M24,4C13,4,4,13,4,24s9,20,20,20s20-9,20-20S35,4,24,4z"/><path fill="#fff" d="M36,17.1c-0.9,0.4-2,0.8-3,0.9c1-0.6,2.6-1.9,3-3c-1,0.6-2.7,1.2-3.8,1.4C31.3,15.4,30,15,28.6,15	c-2.7,0-4.6,2.3-4.6,5v2c-4,0-7.9-3-10.3-6c-0.4,0.7-0.7,1.6-0.7,2.5c0,1.8,1.7,3.7,3,4.5c-0.8,0-2.3-0.6-3-1c0,0,0,0,0,0.1	c0,2.4,1.7,4,3.9,4.4C16.5,26.6,16,27,14.1,27c0.6,1.9,3.8,3,5.9,3c-1.7,1.3-4.7,2-7,2c-0.4,0-0.6,0-1,0c2.2,1.4,5.2,2,8,2	c9.1,0,14-6.9,14-13.4c0-0.2,0-0.9,0-1.1C35,18.8,35.3,18.1,36,17.1"/></svg>