<svg xmlns="http://www.w3.org/2000/svg" viewBox="0 0 1000 1168.02"><defs><style>.cls-1{fill:#ab0000;}.cls-2{fill:#fedd19;}.cls-3{fill:#fff;}</style></defs><g id="Base_negra" data-name="Base negra"><path d="M986.21,98.64C885.74,55.28,706.62-3,482.11-.06,273.84,2.72,110.67,55,13.56,97a22.61,22.61,0,0,0-13.63,21c.33,36.91,1.62,85.25,5.46,141.61C11.9,355.06,22.85,431.25,27.56,460,42.06,548.61,92,854.52,334.29,1065.17a797.34,797.34,0,0,0,144.76,100,22.58,22.58,0,0,0,21.06.19,804.83,804.83,0,0,0,146.45-96.47C861.32,890.78,925,646.37,943.12,572.75c18.6-75.54,27.37-151.19,39.73-257.76,9-77.9,14.08-144.38,17-194.18A22.68,22.68,0,0,0,986.21,98.64Zm-205,773.86c-.8,1.45-22.06,37.88-66.06,91.28-6.89,8.36-16.24,19.13-18,21.17h0q-15.39,17.55-30.87,33.44L444,1067.87l-52.74,11.74c-8-6.13-16.51-12.89-25.33-20.22v0A809,809,0,0,1,227,910.72q-14.17-19.65-26.41-38.93A809.23,809.23,0,0,1,115.83,694.2l84.73.23,85.46.23,79.91.22,78.07.21,253.14.68,84.08.23,87,.24A945.12,945.12,0,0,1,781.22,872.5ZM936,439.94c-8.12,49.2-17.76,95.32-28.21,138.14a11.57,11.57,0,0,1-11.18,8.8l-804.8,4a11.59,11.59,0,0,1-11.17-8.31A1176.92,1176.92,0,0,1,32.22,268.28a11.52,11.52,0,0,1,7.26-10.9c94.64-37.86,248.47-82.14,442.86-84.44a1228,1228,0,0,1,466.4,86.31A11.56,11.56,0,0,1,956,270.82C952.22,323.18,945.89,379.81,936,439.94Z" transform="translate(0.07 0.17)"/></g><g id="Lineas_rojas" data-name="Lineas rojas"><path id="Linea_3" data-name="Linea 3" class="cls-1" d="M781.22,872.5V696l-84.08-.23V985c1.78-2,11.13-12.81,18-21.17C759.16,910.38,780.42,874,781.22,872.5Z" transform="translate(0.07 0.17)"/><path id="Linea_2" data-name="Linea 2" class="cls-1" d="M365.93,1059.39c8.82,7.33,17.32,14.09,25.33,20.22L444,1067.87V695.09l-78.07-.21Z" transform="translate(0.07 0.17)"/><path id="Linea_1" data-name="Linea 1" class="cls-1" d="M200.56,871.79Q212.82,891,227,910.72a807.5,807.5,0,0,0,59,72.53V694.66l-85.46-.23Z" transform="translate(0.07 0.17)"/></g><g id="Lineas_amarillas_copy" data-name="Lineas amarillas copy"><path id="Linea_4" data-name="Linea 4" class="cls-2" d="M781.22,696V872.5a945.12,945.12,0,0,0,87-176.26Z" transform="translate(0.07 0.17)"/><path id="Linea_3-2" data-name="Linea 3" class="cls-2" d="M697.14,695.77,444,695.09v372.78l222.27-49.47q15.43-15.9,30.87-33.44Z" transform="translate(0.07 0.17)"/><path id="Linea_2-2" data-name="Linea 2" class="cls-2" d="M365.93,694.88,286,694.66V983.25a810.29,810.29,0,0,0,79.91,76.16Z" transform="translate(0.07 0.17)"/><path id="Linea_1-2" data-name="Linea 1" class="cls-2" d="M200.56,694.43l-84.73-.23a809.23,809.23,0,0,0,84.73,177.59Z" transform="translate(0.07 0.17)"/></g><g id="Fondo_rojo" data-name="Fondo rojo"><path class="cls-1" d="M956,270.82a11.56,11.56,0,0,0-7.27-11.57,1228,1228,0,0,0-466.4-86.31C288,175.24,134.12,219.52,39.48,257.38a11.52,11.52,0,0,0-7.26,10.9A1176.92,1176.92,0,0,0,80.6,582.56a11.59,11.59,0,0,0,11.17,8.31l804.8-4a11.57,11.57,0,0,0,11.18-8.8c10.45-42.82,20.09-88.94,28.21-138.14C945.89,379.81,952.22,323.18,956,270.82Z" transform="translate(0.07 0.17)"/></g><g id="Arbol"><path class="cls-2" d="M663.88,267.37c-7.48,7.59-14.93,15.2-22.43,22.77Q575.73,356.52,509.92,422.8a11.71,11.71,0,0,0-3.66,10.3c.92,10,1.51,20.1,2.3,30.15.2,2.48.64,4.93,1.07,8.22l231-86.57.46,1L511.22,503.54c.35,6.13.67,11.89,1,18.42,77.87,8.87,155.6,17,233.21,26.28-76.89-.14-153.74-.46-231.13-.32,1.32,17.76,2.58,34.7,3.83,51.5-4.66,1.43-49.46,1.77-57.37.46.73-17,2.48-34.07,3.47-52-39.19-.19-77.91-.18-116.62-.22s-77.13,0-115.77-.91L466.15,521.5c.29-5.68.54-10.68.82-15.68.14-2.5-1.77-3.21-3.49-4.08q-10.37-5.3-20.73-10.56Q342.15,440.11,241.53,389a15.61,15.61,0,0,1-5.21-3.81l232.56,88c.43-2.76.93-5,1.11-7.19.82-10.24,1.43-20.5,2.4-30.73.31-3.32-1.09-5.44-3.18-7.65q-32.13-34.08-64.16-68.27L321.4,270.28a26,26,0,0,1-3.94-5.1c52.25,44.13,104,88.85,156.92,134.25.58-6.53,1.14-11.8,1.51-17.09,1.52-21.65,2.93-43.32,4.55-65,.24-3.17-.89-5.64-2.3-8.19Q450.51,259,422.91,208.78a12.5,12.5,0,0,1-1.88-6l60.54,76.73,1.37-.42q3-44.19,6.07-88.37l.73,0c2.05,28.37,4.1,56.74,6.13,84.87a5.75,5.75,0,0,0,1,.4,1.1,1.1,0,0,0,.56-.16,5.59,5.59,0,0,0,.91-.69c.42-.4.81-.84,1.19-1.28q30.49-35.16,61-70.33a14.26,14.26,0,0,1,1.86-1c-1.51,2.71-2.38,4.37-3.34,6q-28.89,48.14-57.85,96.23a17.47,17.47,0,0,0-2.67,11.44c1.33,14.28,2,28.62,3,42.93.8,11.58,1.68,23.15,2.53,34.9,3,.38,4.37-1.83,6-3.17q35.73-28.9,71.36-58l79-64.23c.87-.71,1.8-1.35,2.7-2Z" transform="translate(0.07 0.17)"/><g id="Circulos"><path class="cls-2" d="M654.93,248.6c-.12,10.11-8.82,18.6-18.76,18.31a18.7,18.7,0,0,1-18-19,18.41,18.41,0,0,1,36.81.71Z" transform="translate(0.07 0.17)"/><path class="cls-2" d="M252.32,504.65a18.4,18.4,0,1,1-18.64-18.26A18.44,18.44,0,0,1,252.32,504.65Z" transform="translate(0.07 0.17)"/><path class="cls-2" d="M237.31,348.29a18.22,18.22,0,0,1,18.8-18.05,18.5,18.5,0,0,1,18,18.38,18.73,18.73,0,0,1-18.63,18.44A18.38,18.38,0,0,1,237.31,348.29Z" transform="translate(0.07 0.17)"/><path class="cls-2" d="M476,204.07a18.3,18.3,0,0,1-18.22,18.63c-10,0-18.65-8.61-18.54-18.56a18.61,18.61,0,0,1,18.18-18.25A18.08,18.08,0,0,1,476,204.07Z" transform="translate(0.07 0.17)"/><path class="cls-2" d="M586.71,203.25a17.91,17.91,0,0,1,18.42,18.28,18.13,18.13,0,0,1-18.49,18.31,18.58,18.58,0,0,1-18.33-18.1A18.37,18.37,0,0,1,586.71,203.25Z" transform="translate(0.07 0.17)"/><path class="cls-2" d="M290.58,275.87a18.41,18.41,0,1,1-.64,36.81c-10.3-.26-18-8.48-17.77-19A18.2,18.2,0,0,1,290.58,275.87Z" transform="translate(0.07 0.17)"/><path class="cls-2" d="M375.76,220.49a17.86,17.86,0,0,1,18.3-18.35,18.2,18.2,0,0,1,18.4,18.45,18.85,18.85,0,0,1-18.22,18.31A18.35,18.35,0,0,1,375.76,220.49Z" transform="translate(0.07 0.17)"/><path class="cls-2" d="M745.47,485a18.31,18.31,0,0,1,18.47,18.4,18.76,18.76,0,0,1-18.67,18.41,18.37,18.37,0,0,1-18-18.31A17.94,17.94,0,0,1,745.47,485Z" transform="translate(0.07 0.17)"/><path class="cls-2" d="M328.1,244.81a18,18,0,0,1,18.5-18.21,18.36,18.36,0,0,1,18.31,18.6,19,19,0,0,1-18.42,18.16A18.37,18.37,0,0,1,328.1,244.81Z" transform="translate(0.07 0.17)"/><path class="cls-2" d="M704.11,348.12a18.41,18.41,0,0,1,36.82.12,18.42,18.42,0,0,1-18.52,18.41A18.23,18.23,0,0,1,704.11,348.12Z" transform="translate(0.07 0.17)"/><path class="cls-2" d="M704.19,292.81a18.15,18.15,0,0,1-18.35,18.42,18.37,18.37,0,0,1-.08-36.74A18,18,0,0,1,704.19,292.81Z" transform="translate(0.07 0.17)"/><path class="cls-2" d="M520.7,222.05c-10.44-.09-18.16-8.09-18-18.65a18.14,18.14,0,0,1,18.23-18,18.68,18.68,0,0,1,18.56,18.5A18.41,18.41,0,0,1,520.7,222.05Z" transform="translate(0.07 0.17)"/><path class="cls-2" d="M230.72,418.53A17.88,17.88,0,0,1,249,437a18.1,18.1,0,0,1-18,18.21,18.65,18.65,0,0,1-18.78-18.26A18.38,18.38,0,0,1,230.72,418.53Z" transform="translate(0.07 0.17)"/><path class="cls-2" d="M764.86,431.22a18.28,18.28,0,1,1-36.55-.24,18.28,18.28,0,0,1,36.55.24Z" transform="translate(0.07 0.17)"/></g><g id="Hojas"><path class="cls-2" d="M435.72,450.43c-11.52-3.47-20.1-9.52-25.3-19.72s-2.85-20.76-.17-31.87a31.33,31.33,0,0,1,5.85.78c15.43,5,24.1,19.18,21.69,35.28C437.08,439.67,436.51,444.46,435.72,450.43Z" transform="translate(0.07 0.17)"/><path class="cls-2" d="M618.7,381.89c-.4,8.74,2.44,17.23.4,26-2.62,11.31-15.22,22.51-26.75,23.47a15,15,0,0,1-2.56-.3c-.56-8-2.67-15.6-.85-23.59,2.72-12,15.08-24.06,27-25.85A12.59,12.59,0,0,1,618.7,381.89Z" transform="translate(0.07 0.17)"/><path class="cls-2" d="M420.3,519.47a38.72,38.72,0,0,1-27.34-6c-11.4-7.43-13.56-19.59-15.69-32.44,2.38-.47,4.78-1.43,7.13-1.33,12.17.51,27.37,5.3,31.9,23.71C417.54,508.46,418.81,513.49,420.3,519.47Z" transform="translate(0.07 0.17)"/><path class="cls-2" d="M266.6,493.61c4.15-2.53,8.5-1.94,12.58-1.26,13.35,2.2,22.81,9.2,26.35,22.86,1.31,5,2.52,10.11,3.77,15.13-6.77,3.71-21.93.14-30-6.93C270.44,515.67,268.64,504.91,266.6,493.61Z" transform="translate(0.07 0.17)"/><path class="cls-2" d="M349.66,377.82a31.92,31.92,0,0,1,4.83.5c14,3.62,24.41,17.95,23.2,32.28-.5,5.95-1.58,11.85-2.51,18.59-8.95-1.82-15.67-6.64-21.27-13.15C346.34,407.24,345.42,398.35,349.66,377.82Z" transform="translate(0.07 0.17)"/><path class="cls-2" d="M516.75,363.52c-.81-7.6-2.55-14.75-1.24-22.2,2.23-12.68,14.49-25.18,27.14-27.23a13.25,13.25,0,0,1,2.71.21c.41,7.2,1.37,14.34,1.12,21.44C546,350.26,531.36,363.89,516.75,363.52Z" transform="translate(0.07 0.17)"/><path class="cls-2" d="M654.16,490.4c-2.57,6.52-4.69,13.19-7.76,19.39-6,12.15-22.9,18.88-35.88,14.75a19.73,19.73,0,0,1-3.11-1.65c1.37-4.26,2.48-8.36,4-12.3,5.28-13.72,15.45-21,30-22C645.54,488.36,649.92,487.56,654.16,490.4Z" transform="translate(0.07 0.17)"/><path class="cls-2" d="M594.61,276.84c.39,6.87,1.23,14,1.09,21.09-.27,13.7-14.13,27.49-27.85,28.24a7.69,7.69,0,0,1-2.12-.71c-.43-6-1.37-12.12-1.21-18.23.37-14.74,13.84-29.12,28.45-30.94C593.31,276.24,593.68,276.51,594.61,276.84Z" transform="translate(0.07 0.17)"/><path class="cls-2" d="M439.14,308.66c9.05,4.48,14.93,11.16,19.31,19.26,7.09,13.09,4,26.2-.36,40.11-2.4-1.13-4.85-1.79-6.7-3.23-11.94-9.28-18.86-20.92-16.19-36.66C436.27,321.89,437.7,315.7,439.14,308.66Z" transform="translate(0.07 0.17)"/><path class="cls-2" d="M583.08,255.44a10.67,10.67,0,0,1-.23,2.34c-4.11,12.21-20.21,22.54-32.93,21a52.68,52.68,0,0,1-8.95-2.28c-4-1.26-8-2.72-12-4.09,1.39-6.91,9.55-15.67,18.59-20.25C560.1,245.81,571.54,250.14,583.08,255.44Z" transform="translate(0.07 0.17)"/><path class="cls-2" d="M314.66,403.79c-9.89-2.05-16.92-7.26-22.43-14.48-8.62-11.27-6.3-23.74-3.1-36.88a31.55,31.55,0,0,1,5.27.75c15.72,4.86,24.58,19.08,22.23,35.46C316,393.42,315.38,398.2,314.66,403.79Z" transform="translate(0.07 0.17)"/><path class="cls-2" d="M596.65,486.48c-2.16,5.72-4.23,11.13-6.25,16.55-6.28,16.85-25.71,20.73-36.88,17.8a20.33,20.33,0,0,1-3.64-1.83c1.64-4.85,3-9.46,4.76-13.92,7.35-18.61,27.07-22.65,40.12-19.75A8.35,8.35,0,0,1,596.65,486.48Z" transform="translate(0.07 0.17)"/><path class="cls-2" d="M712.08,495.34c-2.42,6.3-4.47,12.11-6.86,17.78-7,16.54-25.4,19.31-37,16.65a17.17,17.17,0,0,1-2.93-1.36c2.16-7.11,3.75-14.22,7.86-20.4,7.18-10.75,23.21-17,35.75-13.94A25.74,25.74,0,0,1,712.08,495.34Z" transform="translate(0.07 0.17)"/><path class="cls-2" d="M679.5,360c.46,6.17.94,11.91,1.31,17.66.91,14.23-6.55,23.27-18.47,29.39-3.37,1.73-6.92,3.31-11.29,2.47-1-8.67-2.95-17.12-.37-25.78C654.2,371.91,666.38,361.54,679.5,360Z" transform="translate(0.07 0.17)"/><path class="cls-2" d="M415.25,336.93c-2.64-1.34-5-2.15-6.95-3.6-12.8-9.76-18.74-22.42-15.71-38.62,1-5.5,2.37-10.94,3.58-16.41,8.12,1.74,18.71,13.68,22,24.51C421.71,314.19,418.69,325,415.25,336.93Z" transform="translate(0.07 0.17)"/><path class="cls-2" d="M559.82,401.52c.31,7.86,1.33,15.79.77,23.6-.74,10.59-7.73,17.41-16.54,22.38-3.83,2.16-7.85,4.21-12.84,3.27-1.12-8.65-3-17.15-.42-25.84C534.37,413,547.55,402,559.82,401.52Z" transform="translate(0.07 0.17)"/><path class="cls-2" d="M320.49,487.44c4.41-2.16,8.68-1.79,12.82-1.1,12.83,2.14,22.16,8.69,25.87,21.73,1.56,5.52,2.85,11.12,4.42,17.28-11.81,1.62-22-1-30.61-8.32C324.1,509.47,322.58,498.51,320.49,487.44Z" transform="translate(0.07 0.17)"/><path class="cls-2" d="M258.58,459.31c2.44-4,4.41-7.59,6.64-11a36.15,36.15,0,0,1,44.06-13,12.92,12.92,0,0,1,2,1.53c-5,6.3-8.17,13.83-14.12,19.45-8.86,8.37-26.47,10.37-36.92,4.24A20.2,20.2,0,0,1,258.58,459.31Z" transform="translate(0.07 0.17)"/><path class="cls-2" d="M332.66,357.12c3.5-3.06,6.56-6,9.89-8.6a35.22,35.22,0,0,1,47,3.43c-7.43,5.09-13.27,12.18-22,15.32C356.22,371.35,339.8,366.69,332.66,357.12Z" transform="translate(0.07 0.17)"/><path class="cls-2" d="M301.47,475c2.47-3.95,4.59-7.65,7-11.15,11.48-16.7,30.76-16.71,43.58-11.92a12.82,12.82,0,0,1,2.37,1.8c-4.59,6.18-8.54,12.67-13.63,18.11C331.47,481.8,312,483.16,301.47,475Z" transform="translate(0.07 0.17)"/><path class="cls-2" d="M448.18,268.62c-7.67,2.52-14.65,5.44-21.92,7.06-12.95,2.89-29.88-7.24-33.75-19.53C416.9,241.33,437.55,249.93,448.18,268.62Z" transform="translate(0.07 0.17)"/><path class="cls-2" d="M669.51,432.25a41.81,41.81,0,0,1,27.41-.12c12.85,4.27,18.36,15.25,23.45,27-5.87,3.87-12.42,4-19,3.21-10.66-1.27-19-6.33-24.15-16C674.92,441.9,672.43,437.54,669.51,432.25Z" transform="translate(0.07 0.17)"/><path class="cls-2" d="M622.84,320.1c14.69-13.27,36.86-16.67,56.64,6.44a13.82,13.82,0,0,1-1.64,2.2c-8.73,8.06-27.86,13.1-40.75,3C632.39,328,627.82,324.17,622.84,320.1Z" transform="translate(0.07 0.17)"/><path class="cls-2" d="M624.38,451.93c10.73-4.66,21-4.79,31.26-.7,10.7,4.26,15.75,13.81,21.3,23.83a37.39,37.39,0,0,1-5.26,2.8c-14.8,5.19-30,.18-38.8-12.78C630.08,461,627.47,456.71,624.38,451.93Z" transform="translate(0.07 0.17)"/><path class="cls-2" d="M646.41,361.9a42.11,42.11,0,0,1-4.56,4.1c-10.43,7-27.64,10.78-41.36-1.8-3.4-3.12-7-6-10.54-9C601.49,343.18,625.84,337.11,646.41,361.9Z" transform="translate(0.07 0.17)"/><path class="cls-2" d="M354.48,319.23c-5.11,4.13-10,8.27-15,12.09-12.65,9.51-32.08,4.11-40.19-3.91a13.9,13.9,0,0,1-1.46-2.14c3.69-3.28,7.12-6.64,10.87-9.59,14.63-11.54,33-7.45,45,2C353.9,317.86,354,318.3,354.48,319.23Z" transform="translate(0.07 0.17)"/></g></g><g id="Ancheneta_ambborde" data-name="Ancheneta ambborde"><path d="M363.77,696.62l5.17-3.22c11.18-7,22.44-13.87,33.48-20.53-19-30.77-21.05-68-5.23-97.71,14.43-27.08,38.62-39.13,51.76-43.9l.1,0,.11,0a101.5,101.5,0,0,1,22-2.4,94.35,94.35,0,0,1,43.95,10.52c36.71,19.07,47.77,56.39,50.69,70.22,1.18-1.95,2.45-3.86,3.78-5.71,3.56-4.93,5.7-7.9,9.23-10.25a24.33,24.33,0,0,1,13.58-3.77c1,0,2.05.05,3.1.14,4.05-5.46,18.39-25,28.53-41.45,6.18-10,11-19.09,11-19.18,2.3-4.37,3.91-7.66,4.68-9.24l.26-.53c6.67-13.6,17.53-27.54,28-41l2.29-2.94c10.09-13,16.28-20.1,20.37-24.81,5.15-5.93,6.08-7,6.52-10.17,1.41-10-2.77-18.08-11.11-34.15a229.91,229.91,0,0,0-13.7-22.07c-4.77-7.05-7.27-10.82-7.61-13a9.46,9.46,0,0,1,2.35-7.53,10.24,10.24,0,0,1,7.71-3.69,9.58,9.58,0,0,1,5.15,1.53c3.55,2.23,7.19,7.89,12.71,16.45,1.49,2.31,3.11,4.83,4.91,7.56a154.69,154.69,0,0,0,13.26,17.67c.67.79,1.38,1.65,2.1,2.54,1.8,2.19,5.11,6.23,6.41,6.42,4-3.44,5.37-7.79,6.58-11.64,1.33-4.25,2.59-8.27,7-9.94l.16-.06.16,0a10,10,0,0,1,1.72-.15,9.29,9.29,0,0,1,7.4,3.71,9.67,9.67,0,0,1,1.79,8.29c-.13.47-.41,2-.77,3.83-1.56,8.12-4.79,25-8.74,32.24-9.38,17.2-18.4,32.67-26.35,46.32-10.69,18.34-19.92,34.18-25.56,46.65l-1,2.27a482.87,482.87,0,0,1-30.15,57.51c-5.92,9.63-12.23,19.12-18.78,28.22.19.69.45,1.49.75,2.38,1.42,4.24,3.37,10.05.16,15.66-5.54,9.69-13.73,33.78-16.83,47.26a80.88,80.88,0,0,0-1.61,10.85l-.15,1.6Z" transform="translate(0.07 0.17)"/><path class="cls-2" d="M674.87,361.91a7.84,7.84,0,0,1,4.22,1.26c4.12,2.59,8.82,10.94,17.09,23.49a156.6,156.6,0,0,0,13.39,17.86c3.28,3.8,7.35,9.57,9.91,9.57a1.48,1.48,0,0,0,1-.36c8.85-7.53,5.89-18.6,13.14-21.34a7.81,7.81,0,0,1,1.42-.13c5.33,0,8.67,5.44,7.5,9.8-.7,2.62-4.57,26.9-9.36,35.69-22.17,40.65-42.13,71.34-52,93.08a488.31,488.31,0,0,1-31.07,59.59c-7.6,12.35-14.44,22.19-19.17,28.75.76,4,5,11.09,1.27,17.56-5.69,10-14,34.38-17,47.73a83.79,83.79,0,0,0-1.66,11.09l-243.71-.66c13.82-8.61,25.68-15.83,35-21.44-19.43-30.34-22-67.64-6.12-97.47,15.54-29.16,42.9-40.2,50.81-43.07a99.25,99.25,0,0,1,21.65-2.36,93.24,93.24,0,0,1,43.14,10.32C556.91,563,564.28,609.71,565,614.62a82.75,82.75,0,0,1,6.06-9.77c3.48-4.82,5.52-7.64,8.78-9.81a22.16,22.16,0,0,1,12.61-3.48,31.83,31.83,0,0,1,3.9.24c2.15-2.88,18.14-24.41,29.22-42.38,6.28-10.19,11.09-19.29,11.09-19.29,2.62-5,4.34-8.55,5-9.81,7.06-14.4,18.68-28.94,30.13-43.67,23.28-29.93,26.34-29.32,27.25-35.8,1.48-10.57-3-19.17-11.3-35.21-7.91-15.25-20.52-30.59-21.13-34.53-.69-4.47,3.47-9.2,8.33-9.2m0-3.5h0a12,12,0,0,0-9,4.3,11.21,11.21,0,0,0-2.75,8.94c.39,2.55,2.84,6.25,7.89,13.71a226.41,226.41,0,0,1,13.6,21.89c8.16,15.75,12.26,23.65,10.93,33.11-.36,2.57-.94,3.31-6.11,9.26-3.86,4.44-10.31,11.87-20.43,24.88l-2.28,2.94C656.12,491,645.2,505,638.45,518.78l-.25.52c-.77,1.57-2.37,4.85-4.66,9.19h0c-.19.37-4.87,9.19-11,19.08-9.66,15.68-23.18,34.21-27.87,40.55-.77,0-1.52-.07-2.27-.07a26.08,26.08,0,0,0-14.55,4.06c-3.79,2.53-6.13,5.78-9.67,10.68-.54.75-1.07,1.5-1.58,2.27a118.25,118.25,0,0,0-8.11-22.39c-9.72-20.17-24-35.29-42.57-44.91a96,96,0,0,0-44.75-10.72,103.13,103.13,0,0,0-22.41,2.44l-.22,0-.21.08c-13.37,4.85-38,17.13-52.71,44.71-15.85,29.73-14.11,66.95,4.37,97.95-10.58,6.39-21.33,13-32,19.64l-10.33,6.43,12.17,0,243.71.66h3.21l.29-3.2a78.74,78.74,0,0,1,1.58-10.62c3.07-13.37,11.18-37.22,16.64-46.78,3.59-6.29,1.42-12.79,0-17.09l-.49-1.49c6.4-8.93,12.57-18.22,18.35-27.63a483.77,483.77,0,0,0,30.25-57.72l1-2.26c5.61-12.39,14.82-28.19,25.48-46.49,8-13.66,17-29.14,26.38-46.36,4.08-7.48,7.35-24.55,8.92-32.75.32-1.69.63-3.3.74-3.7a11.44,11.44,0,0,0-2.09-9.82,11,11,0,0,0-8.79-4.39,11.49,11.49,0,0,0-2,.18l-.33.06-.31.11c-5.2,2-6.72,6.8-8,11.06-1.09,3.46-2.21,7-5.14,10a49.73,49.73,0,0,1-4.82-5.36c-.71-.87-1.44-1.76-2.14-2.57a153.06,153.06,0,0,1-13.12-17.49c-1.79-2.72-3.44-5.29-4.9-7.56-5.84-9.06-9.37-14.53-13.25-17a11.28,11.28,0,0,0-6.07-1.8Z" transform="translate(0.07 0.17)"/></g><g id="Ancheneta_sense_borde" data-name="Ancheneta sense borde"><path d="M393.65,1095.89c-6.83-24.43-6.75-51.65-20.48-73A33.89,33.89,0,0,0,359,1011.05c-8.26-3.93-16.24-4.15-21.25-6.47-12.66-5.87-17.78-20.48-22.48-34.8-3.9-11.91-10.68-32.59-1.77-46.19,1.81-2.76,4.75-6,5.78-11.66,1.39-7.76-2-10-2.66-17.1-1-12.24,12.13-22.17,12-28.75-.08-4.54-3.58-6.7-6.12-13.74-4.51-12.52-7.67-20.44-7.85-33-.24-16.37-.38-25.56,5.42-34.46,1.82-2.79,5.79-9.75,10.4-18.71.77-1.5,3-4.17,4-8.2a42.12,42.12,0,0,0,1.16-10.62c-.05-8.21,2.85-22.48,6.58-30.37,3.12-6.59,7.66-9.62,22.17-18.71,16.16-10.12,29.91-18.5,40.42-24.83-19.43-30.34-22-67.64-6.12-97.47,15.54-29.16,42.9-40.2,50.81-43.07,8.44-1.88,36.13-6.92,64.79,8C556.91,563,564.28,609.71,565,614.62a82.75,82.75,0,0,1,6.06-9.77c3.48-4.82,5.52-7.64,8.78-9.81,1.93-1.29,7.31-4.37,16.51-3.24,2.15-2.88,18.14-24.41,29.22-42.38,6.28-10.19,11.09-19.29,11.09-19.29,2.62-5,4.34-8.55,5-9.81,7.06-14.4,18.68-28.93,30.13-43.67,23.28-29.93,26.34-29.32,27.25-35.8,1.48-10.57-3-19.17-11.3-35.21-7.91-15.25-20.52-30.59-21.13-34.53-.89-5.73,6.23-11.91,12.55-7.94,4.12,2.59,8.82,10.94,17.09,23.49a156.6,156.6,0,0,0,13.39,17.86c3.74,4.34,8.51,11.24,10.9,9.21,8.85-7.53,5.89-18.6,13.14-21.34,6.15-1.07,10.19,4.94,8.92,9.67-.7,2.62-4.57,26.9-9.36,35.69-22.17,40.65-42.13,71.34-52,93.08a488.31,488.31,0,0,1-31.07,59.59c-7.6,12.35-14.44,22.19-19.17,28.75.76,4,5,11.09,1.27,17.56-5.69,10-14,34.38-17,47.73-3.19,13.89-2.39,34.84-1.93,59.9.45,24.41,2,26.51,2,49.54,0,26.91-2.16,34.83-2.07,62,0,17.07.94,30.84,1.61,39.26a198.89,198.89,0,0,0,10.28,23c5.8,11,7.33,11.41,11.32,18.94,8.92,16.84,11.78,34.78,14.09,49.32,1.54,9.68,1.65,14.31,5.31,20.78a43.93,43.93,0,0,0,16.63,16.17Z" transform="translate(0.07 0.17)"/></g><g id="Engrescats"><path class="cls-3" d="M100.2,170.09a44,44,0,0,1-15.63,9.38,31.55,31.55,0,0,1-22.38-1.78,30.5,30.5,0,0,1-12-10.73l77.62-26.56a43.14,43.14,0,0,0-9.2-22.75C106.45,102.93,83.74,98,61.13,105c-3.28,1.09-20.32,7.14-29.52,25.52a51.88,51.88,0,0,0-3.34,36.87c1.65,3.55,9.26,18.86,27.37,26.09a51.56,51.56,0,0,0,31.74,1.91A47.09,47.09,0,0,0,123.86,164l-16.19-3.14A43.54,43.54,0,0,1,100.2,170.09ZM50.71,132.41a36.8,36.8,0,0,1,16.15-12.15c2.53-1,13.52-5,25.53,0a33.07,33.07,0,0,1,13.54,10.59L43.4,152.71A37,37,0,0,1,50.71,132.41Z" transform="translate(0.07 0.17)"/><path class="cls-3" d="M139.27,176.86l17.54-4-14.24-55.07a27.07,27.07,0,0,1,7.12-18.88,26.35,26.35,0,0,1,13.19-7.47,27,27,0,0,1,18.93,1.39,26.57,26.57,0,0,1,11.46,10.59q7.54,28.22,15.11,56.44L225.57,155,210.46,98.2A41.16,41.16,0,0,0,195.7,80.67c-14.16-9.34-29.31-6.24-32.3-5.56A50.29,50.29,0,0,0,135.27,89.7l-2.77-7.47-16.67,5.38Z" transform="translate(0.07 0.17)"/><path class="cls-3" d="M285.47,76.67,299.7,65.59A54.66,54.66,0,0,0,274.88,54.8a53.81,53.81,0,0,0-18.58.34c-1.49.25-31,5.68-40.11,30.91a45.53,45.53,0,0,0-1,26.39,48,48,0,0,0,13.54,23.62c17.57,16.48,41.42,12.35,44.28,11.8,2.13-.3,28.78-4.56,40-28.65,7.3-15.73,3.65-30.55,2.41-34.9l-58.52,10.6,2.6,16,38.9-7.29A31.89,31.89,0,0,1,270.1,131.8,34.36,34.36,0,0,1,245,126.16a33.77,33.77,0,0,1-12.54-17.54A32.29,32.29,0,0,1,235,88.78c6.32-13,19.44-16.63,21.45-17.14a38.76,38.76,0,0,1,29,5Z" transform="translate(0.07 0.17)"/><path class="cls-3" d="M377.32,93.34c1.46,0,14.2,0,22.14-10.42a27,27,0,0,0,5.3-17.53,27.54,27.54,0,0,0-4.43-14c-8-12.09-23.05-12.61-24.71-12.64l-63.3,6.33,9.27,93.47L339.47,137,335.65,98.9l14.76-2.08,47.4,34L424,128.76Zm-43.75-11.2-2.43-22.66,42.71-4.08A12.15,12.15,0,0,1,386,65a10.38,10.38,0,0,1-.18,5.38,11.34,11.34,0,0,1-6.36,6.73Z" transform="translate(0.07 0.17)"/><path class="cls-3" d="M515.82,54.61c-9.45-14.12-26.55-21.85-44.56-20.48-3-.17-22.86-1-38,14.59-13,13.41-13.66,29.78-13.71,33.42a47.84,47.84,0,0,0,12.5,30C445,126,461.74,126.91,465,127a51.39,51.39,0,0,0,25.7-2.78A53.42,53.42,0,0,0,512,109c-5-2.69-11.11-5.52-16.15-8.21a35.87,35.87,0,0,1-9.18,7,38.11,38.11,0,0,1-16.41,4.17,33.3,33.3,0,0,1-16.34-4.69,34.6,34.6,0,0,1-14.24-17l83.17-2.43C523.45,83.67,525.22,68.66,515.82,54.61Zm-78.94,19a38.71,38.71,0,0,1,10.51-14.59,37.12,37.12,0,0,1,24.06-9.18,37.61,37.61,0,0,1,25.29,10.29A35.83,35.83,0,0,1,505,72.42Z" transform="translate(0.07 0.17)"/><path class="cls-3" d="M584,71.72l18.23,2.41c.39-1.89,2.76-14.35-5.64-25.5C587.4,36.39,573,36.09,571.36,36.09a49,49,0,0,0-17.73.59c-4.92,1.09-10,2.21-14.65,6.39a25.6,25.6,0,0,0-7.34,11.8,23,23,0,0,0,.92,12.05,23.86,23.86,0,0,0,10.93,12.44c1.55.87,4.19,1.71,9.47,3.39,4.3,1.37,7.88,2.4,10.33,3.08,1.63.44,4,1.07,6.77,1.87,8.45,2.4,10.18,3.15,11.89,4.17,2.89,1.71,5.9,3.5,6.6,6.86s-1.22,6.15-1.95,7.16a17.06,17.06,0,0,1-3.69,3.51c-3,2.13-6,2.68-9,3.22a35.36,35.36,0,0,1-8.51.43,40.41,40.41,0,0,1-5-.69c-3-.6-6.48-1.33-9.55-3.22-5.47-3.36-7.45-9.14-8.34-11.72A26.63,26.63,0,0,1,541.32,85l-8.74-.25c-3-.06-6.06-.11-8.75-.26-.46,2.8-2.07,18.44,7.69,30.63A33.49,33.49,0,0,0,543,124.51c4.58,2.24,9.1,3,14.5,4,2.88.51,5.3.79,7,1a57,57,0,0,0,16.61-1.73c5.41-1.4,12-3.11,17.9-8.78a31,31,0,0,0,6.69-9.55c.77-3.79,2.59-15.32-4.08-23.61-5.36-6.65-15.07-9.82-18.76-11-.88-.29-4.27-1.35-9.2-3-4.3-1.46-3.75-1.5-5.51-1.91a107.19,107.19,0,0,1-11.94-3.47c-3.42-1.21-5.29-2.08-6.16-4a6.83,6.83,0,0,1,.08-5.12A12.7,12.7,0,0,1,553.74,54a15,15,0,0,1,5.8-1.69,35.84,35.84,0,0,1,9.22,0,15.53,15.53,0,0,1,11.72,4.34A15.28,15.28,0,0,1,584,71.72Z" transform="translate(0.07 0.17)"/><path class="cls-3" d="M693.52,85.7l15.75-6.77a54.82,54.82,0,0,0-48.18-34.64c-3-.15-28.8-1-44.28,18.75a47.89,47.89,0,0,0-9,19.49A48.52,48.52,0,0,0,611,107.71c9.89,23.64,35.87,29.59,38.81,30.21a54.81,54.81,0,0,0,54.55-22.34l-13.79-10.15a44.73,44.73,0,0,1-32.69,16.48c-15.17-2-27.41-10.72-31.13-22.74a29,29,0,0,1-.25-15.55,34.15,34.15,0,0,1,39.46-22C682.43,65.31,691.12,81,693.52,85.7Z" transform="translate(0.07 0.17)"/><path class="cls-3" d="M801.69,70.94l-1.82,10a61.13,61.13,0,0,0-31-17.59c-3.38-.9-21.26-5.32-38.89,5.21A50.59,50.59,0,0,0,709.27,93a46,46,0,0,0-1.52,24c5.45,25.41,31.93,35.46,34.21,36.29a57.54,57.54,0,0,0,41.13-1.53l-1.71,9.69,17.71,4.51,19.62-91.5Zm-16.84,58.69c-9.59,11-23.33,10.76-26.63,10.59-13.8-.67-22.3-9.52-24.77-12.15-2.85-3-9.32-10-9.55-19.19-.37-14.93,15.68-31.34,34.32-31.34,18,0,33.58,15.37,34.31,31.34C793,119.94,786.27,128,784.85,129.63Z" transform="translate(0.07 0.17)"/><polygon class="cls-3" points="822.08 76.14 890.32 96.11 885.45 111.39 859.58 104.28 838.05 178.75 819.82 173.02 841.52 98.72 817.56 91.67 822.08 76.14"/><path class="cls-3" d="M936.26,150.3l16.49,7.11c.76-1.42,7.53-15.13.7-29.17a32.36,32.36,0,0,0-18.23-16,54.28,54.28,0,0,0-20.4-4.86c-5-.18-9.53-.29-14.5,2.25a23.69,23.69,0,0,0-9.38,9,21.29,21.29,0,0,0-2.6,9.11c-.47,9.12,5.33,15.52,6.4,16.71s3.75,3.1,9.14,7c3.63,2.63,6.64,4.75,8.68,6.17,4.28,2.59,7.85,4.92,10.59,6.77,5.1,3.44,6.66,4.77,7.81,7,.56,1.1,2.33,4.57,1,8.34-1.87,5.13-7.91,6.27-8.25,6.33a31.41,31.41,0,0,1-8.51.18,35.35,35.35,0,0,1-4.44-.91,37.28,37.28,0,0,1-8.84-3.78c-3.7-2-6.21-3.41-8.77-6.25a17.7,17.7,0,0,1-3-4.26c-2.33-4.75-1.56-9.45-1-13.19a34.06,34.06,0,0,1,2.2-7.67L874.1,144c-.59,1.46-8,20.43.43,35.16a38.33,38.33,0,0,0,10.69,11.94,92,92,0,0,0,8.82,4.85c2.42,1.2,4.48,2.12,5.93,2.74,4.72,2.1,15.69,6.19,28.18,3.5,3.69-.8,9.39-2.1,14.45-6.88a25,25,0,0,0,5.59-7.86A25.46,25.46,0,0,0,950,171.48a26.06,26.06,0,0,0-4.78-9.81c-2.09-2.87-4.33-4.94-10.68-9.55-3.74-2.72-8.64-6.14-14.58-9.9a60.6,60.6,0,0,1-9.29-6.25c-3.58-2.93-4.57-4.45-4.56-6.07a5.63,5.63,0,0,1,1.78-3.74c4.92-5.13,18.55-.1,19.62.31a20.79,20.79,0,0,1,5.56,3.51,14.81,14.81,0,0,1,4.7,6.15c1.2,3.29.59,6.3,0,9.3A27.92,27.92,0,0,1,936.26,150.3Z" transform="translate(0.07 0.17)"/></g><g id="De_la_URL" data-name="De la URL"><polygon class="cls-3" points="221.47 612.86 255.68 612.86 255.68 620.67 231.61 620.67 231.61 636.12 255.68 636.12 255.68 643.59 231.61 643.59 231.61 664.34 255.68 664.34 255.68 672.76 221.47 672.76 221.47 612.86"/><polygon class="cls-3" points="288.32 612.86 295.26 612.86 295.26 665.47 320.27 665.47 320.27 672.76 288.32 672.76 288.32 612.86"/><path class="cls-3" d="M209.76,622.85c-7.42-9.35-18.28-10.08-20-10.16H171.74v59.9H192.4a33.6,33.6,0,0,0,18.06-13.8,33,33,0,0,0,5-17A27.53,27.53,0,0,0,209.76,622.85Zm-1.3,19.79a23,23,0,0,1-2.86,10.77c-5.45,9.69-16.32,11.62-18,11.89h-9.12V619.89h11.37a22.51,22.51,0,0,1,12.59,6.69A22.93,22.93,0,0,1,208.46,642.64Z" transform="translate(0.07 0.17)"/><path class="cls-3" d="M348.15,612.69h-11.8L320.2,665.3v7.29h5.21l6.77-18.4h20.23l4.86,18.4h8.85ZM333.83,647.5,340.51,622h2.65l7.16,25.52Z" transform="translate(0.07 0.17)"/><polygon class="cls-3" points="780.32 613.42 793.99 613.42 793.99 661.34 817.04 661.34 817.56 673.06 780.32 673.06 780.32 613.42"/><path class="cls-3" d="M667.6,613.25h16.54v40.89a7.78,7.78,0,0,0,7.94,6.78,8.13,8.13,0,0,0,5.08-1.57,8.23,8.23,0,0,0,3.13-5.21V613.25h16v40.89a22.57,22.57,0,0,1-7.43,14.33c-6.12,5.24-13.25,4.5-16.73,4.43-2.92-.06-11.39.36-18-6.25a24.1,24.1,0,0,1-6.51-12.51Z" transform="translate(0.07 0.17)"/><path class="cls-1" d="M793.86,669.64" transform="translate(0.07 0.17)"/><path class="cls-3" d="M757.85,647.24a17.48,17.48,0,0,0,9.11-8,19.33,19.33,0,0,0-2.43-20.66c-5.36-5.86-12.87-5.41-13.82-5.34H725.16V672.9H739.1V649.41h5.11l16,23.56h16.06Zm-4.34-10.63a10.16,10.16,0,0,1-6.51,3h-9V623.28h9.14a9.85,9.85,0,0,1,6.49,2.78,7.92,7.92,0,0,1,2.65,5.12C756.2,633.05,756.45,633.57,753.51,636.61Z" transform="translate(0.07 0.17)"/></g></svg>